#N canvas 131 51 415 379 10;
#X obj 90 25 phasor~ 99.8;
#X obj 90 55 phasor~ 100.2;
#X obj 90 85 -~ 1;
#X obj 124 105 noise~;
#X obj 124 135 lop~ 2;
#X obj 124 165 lop~ 2;
#X obj 124 195 *~;
#X obj 124 225 clip~ -0.5 0.5;
#X obj 124 285 *~;
#N canvas 16 414 450 300 comb1 1;
#X obj 60 -118 inlet~;
#X obj 60 -81 vd~ \$0-comb \$1;
#X obj 99 -40 *~ \$2;
#X obj 99 -3 inlet~;
#X obj 199 -3 lop~ 3000;
#X obj 134 34 +~;
#X obj 70 61 outlet~;
#X obj 134 71 delwrite~ \$0-comb 100;
#X obj 470 398 mp3cast~;
#X msg 521 329 disconnect;
#X msg 520 231 passwd hackme;
#X msg 520 253 icecast2;
#X msg 520 277 mountpoint houseFM;
#X msg 520 299 connect localhost 8000;
#X obj 480 408 mp3cast~;
#X msg 531 339 disconnect;
#X msg 530 241 passwd hackme;
#X msg 530 263 icecast2;
#X msg 530 287 mountpoint houseFM;
#X msg 530 309 connect localhost 8000;
#X obj 490 418 mp3cast~;
#X msg 541 349 disconnect;
#X msg 540 251 passwd hackme;
#X msg 540 273 icecast2;
#X msg 540 297 mountpoint houseFM;
#X msg 540 319 connect localhost 8000;
#X connect 0 0 1 0;
#X connect 1 0 2 0;
#X connect 1 0 6 0;
#X connect 2 0 4 0;
#X connect 3 0 5 0;
#X connect 4 0 5 1;
#X connect 5 0 7 0;
#X connect 9 0 8 0;
#X connect 10 0 8 0;
#X connect 10 0 11 0;
#X connect 11 0 8 0;
#X connect 11 0 12 0;
#X connect 12 0 8 0;
#X connect 12 0 13 0;
#X connect 13 0 8 0;
#X connect 15 0 14 0;
#X connect 16 0 14 0;
#X connect 16 0 17 0;
#X connect 17 0 14 0;
#X connect 17 0 18 0;
#X connect 18 0 14 0;
#X connect 18 0 19 0;
#X connect 19 0 14 0;
#X connect 21 0 20 0;
#X connect 22 0 20 0;
#X connect 22 0 23 0;
#X connect 23 0 20 0;
#X connect 23 0 24 0;
#X connect 24 0 20 0;
#X connect 24 0 25 0;
#X connect 25 0 20 0;
#X restore 84 319 pd comb1 80 0.2;
#X obj 61 280 +~ 20;
#X obj 124 255 *~ 1000;
#X obj 83 369 outlet~;
#X connect 0 0 2 0;
#X connect 1 0 2 0;
#X connect 2 0 7 0;
#X connect 3 0 4 0;
#X connect 4 0 5 0;
#X connect 5 0 6 0;
#X connect 5 0 6 1;
#X connect 6 0 11 0;
#X connect 7 0 8 0;
#X connect 8 0 9 1;
#X connect 9 0 12 0;
#X connect 10 0 9 0;
#X connect 11 0 8 1;
#X connect 11 0 10 0;
