#N canvas 399 133 697 529 10;
#X msg 217 88 \; pd dsp 1;
#X obj 197 34 loadbang;
#X obj 217 61 del 100;
#X text 291 61 Why we add a delay here? Answer : http://puredata.info/docs/faq/why-doesn-t-audio-work-when-i-start-pd-in-nogui-mode
;
#X obj 144 157 phasor~ 99.8;
#X obj 160 180 phasor~ 100.2;
#X obj 145 210 -~ 1;
#X obj 178 237 noise~;
#X obj 177 267 lop~ 2;
#X obj 176 290 lop~ 2;
#X obj 178 319 *~;
#X obj 192 349 clip~ -0.5 0.5;
#X obj 179 380 *~ 500;
#X obj 183 407 *~;
#X obj 115 412 +~ 20;
#X obj 158 483 dac~;
#X obj 290 245 inlet~;
#X obj 290 282 vd~ \$0-comb \$1;
#X obj 329 323 *~ \$2;
#X obj 329 360 inlet~;
#X obj 416 360 lop~ 3000;
#X obj 364 397 +~;
#X obj 300 424 outlet~;
#X obj 364 434 delwrite~ \$0-comb 100;
#X obj 125 442 comb1 80 0.2;
#X connect 1 0 2 0;
#X connect 2 0 0 0;
#X connect 4 0 6 0;
#X connect 5 0 6 0;
#X connect 6 0 11 0;
#X connect 7 0 8 0;
#X connect 8 0 9 0;
#X connect 9 0 10 0;
#X connect 9 0 10 1;
#X connect 10 0 12 0;
#X connect 11 0 13 0;
#X connect 12 0 13 1;
#X connect 12 0 14 0;
#X connect 13 0 24 1;
#X connect 14 0 24 0;
#X connect 16 0 17 0;
#X connect 17 0 18 0;
#X connect 17 0 22 0;
#X connect 18 0 20 0;
#X connect 19 0 21 0;
#X connect 20 0 21 1;
#X connect 21 0 23 0;
#X connect 24 0 15 0;
#X connect 24 0 15 1;
