#N canvas 732 24 680 583 10;
#X obj 119 45 100;
#X obj 163 47 200;
#X obj 198 48 300;
#X obj 231 46 400;
#X obj 266 47 500;
#X obj 307 46 600;
#X obj 345 47 700;
#X obj 378 51 800;
#X obj 175 121 osc~;
#X obj 122 9 hsl 128 15 0 127 0 0 empty empty empty -2 -8 0 10 -262144
-1 -1 4200 1;
#X msg 1139 313 wet \$1;
#X obj 1142 273 hsl 50 20 0 1 0 0 empty empty empty -2 -8 0 10 -262144
-1 -1 1999 1;
#X floatatom 1204 306 5 0 0 0 - - -;
#X obj 1139 221 loadbang;
#X msg 1139 244 0.408;
#X msg 1139 313 wet \$1;
#X obj 1142 273 hsl 50 20 0 1 0 0 empty empty empty -2 -8 0 10 -262144
-1 -1 1999 1;
#X floatatom 1204 306 5 0 0 0 - - -;
#X obj 1139 221 loadbang;
#X msg 1139 244 0.408;
#X msg 1149 323 wet \$1;
#X obj 1152 283 hsl 50 20 0 1 0 0 empty empty empty -2 -8 0 10 -262144
-1 -1 1999 1;
#X floatatom 1214 316 5 0 0 0 - - -;
#X obj 1149 231 loadbang;
#X msg 1149 254 0.408;
#X msg 1139 313 wet \$1;
#X obj 1142 273 hsl 50 20 0 1 0 0 empty empty empty -2 -8 0 10 -262144
-1 -1 1999 1;
#X floatatom 1204 306 5 0 0 0 - - -;
#X obj 1139 221 loadbang;
#X msg 1139 244 0.408;
#X msg 1139 313 wet \$1;
#X obj 1142 273 hsl 50 20 0 1 0 0 empty empty empty -2 -8 0 10 -262144
-1 -1 1999 1;
#X floatatom 1204 306 5 0 0 0 - - -;
#X obj 1139 221 loadbang;
#X msg 1139 244 0.408;
#X obj 144 237 freeverb~;
#X obj 1142 273 hsl 50 20 0 1 0 0 empty empty empty -2 -8 0 10 -262144
-1 -1 0 1;
#X msg 323 186 wet \$1;
#X msg 280 333 dry \$1;
#X obj 324 157 hsl 64 15 0 1 0 0 empty empty empty -2 -8 0 10 -262144
-1 -1 296 1;
#X obj 283 301 hsl 64 15 0 1 0 0 empty empty empty -2 -8 0 10 -262144
-1 -1 1399 1;
#X obj 67 327 vu 15 120 empty empty -1 -8 0 10 -66577 -1 1 0;
#X floatatom 404 191 5 0 0 0 - - -;
#X floatatom 365 331 5 0 0 0 - - -;
#X floatatom 178 32 5 0 0 0 - - -;
#X obj 141 -56 loadbang;
#X obj 282 242 loadbang;
#X obj 301 98 loadbang;
#X msg 143 -27 42;
#X msg 298 128 0.047;
#X msg 279 262 0.222;
#X obj 67 170 s~ VU;
#X obj 43 244 env~;
#X obj 44 210 r~ VU;
#X obj 42 276 - 100;
#X obj 167 172 *~ 0.5;
#X obj 467 32 inlet;
#X obj 160 403 outlet~;
#X connect 0 0 8 0;
#X connect 1 0 8 0;
#X connect 2 0 8 0;
#X connect 3 0 8 0;
#X connect 4 0 8 0;
#X connect 5 0 8 0;
#X connect 6 0 8 0;
#X connect 7 0 8 0;
#X connect 8 0 55 0;
#X connect 9 0 0 0;
#X connect 9 0 44 0;
#X connect 11 0 10 0;
#X connect 11 0 12 0;
#X connect 13 0 14 0;
#X connect 14 0 11 0;
#X connect 16 0 15 0;
#X connect 16 0 17 0;
#X connect 18 0 19 0;
#X connect 19 0 16 0;
#X connect 21 0 20 0;
#X connect 21 0 22 0;
#X connect 23 0 24 0;
#X connect 24 0 21 0;
#X connect 26 0 25 0;
#X connect 26 0 27 0;
#X connect 28 0 29 0;
#X connect 29 0 26 0;
#X connect 31 0 30 0;
#X connect 31 0 32 0;
#X connect 33 0 34 0;
#X connect 34 0 31 0;
#X connect 35 0 57 0;
#X connect 35 1 57 0;
#X connect 37 0 35 0;
#X connect 38 0 35 0;
#X connect 39 0 37 0;
#X connect 39 0 42 0;
#X connect 40 0 38 0;
#X connect 40 0 43 0;
#X connect 45 0 48 0;
#X connect 46 0 50 0;
#X connect 47 0 49 0;
#X connect 48 0 9 0;
#X connect 49 0 39 0;
#X connect 50 0 40 0;
#X connect 52 0 54 0;
#X connect 53 0 52 0;
#X connect 54 0 41 0;
#X connect 55 0 35 0;
#X connect 55 0 35 1;
#X connect 55 0 51 0;
#X connect 56 0 45 0;
#X connect 56 0 47 0;
#X connect 56 0 46 0;
