#N canvas 629 51 773 517 10;
#X obj 335 2 phasor~ 99.8;
#X obj 335 32 phasor~ 100.2;
#X obj 335 62 -~ 1;
#X obj 369 82 noise~;
#X obj 369 112 lop~ 2;
#X obj 369 142 lop~ 2;
#X obj 369 172 *~;
#X obj 369 202 clip~ -0.5 0.5;
#X obj 369 262 *~;
#N canvas 228 491 450 300 comb1 0;
#X obj 60 -118 inlet~;
#X obj 60 -81 vd~ \$0-comb \$1;
#X obj 99 -40 *~ \$2;
#X obj 99 -3 inlet~;
#X obj 199 -3 lop~ 3000;
#X obj 134 34 +~;
#X obj 70 61 outlet~;
#X obj 134 71 delwrite~ \$0-comb 100;
#X connect 0 0 1 0;
#X connect 1 0 2 0;
#X connect 1 0 6 0;
#X connect 2 0 4 0;
#X connect 3 0 5 0;
#X connect 4 0 5 1;
#X connect 5 0 7 0;
#X restore 329 296 pd comb1 80 0.2;
#X obj 306 257 +~ 20;
#X obj 369 232 *~ 1000;
#X obj 332 -45 inlet~;
#X obj 322 353 outlet~;
#X connect 0 0 2 0;
#X connect 1 0 2 0;
#X connect 2 0 7 0;
#X connect 3 0 4 0;
#X connect 4 0 5 0;
#X connect 5 0 6 0;
#X connect 5 0 6 1;
#X connect 6 0 11 0;
#X connect 7 0 8 0;
#X connect 8 0 9 1;
#X connect 9 0 13 0;
#X connect 10 0 9 0;
#X connect 11 0 8 1;
#X connect 11 0 10 0;
#X connect 12 0 0 0;
