#N canvas 564 285 537 341 10;
#N canvas 631 300 451 459 hum 0;
#X obj 100 35 phasor~ 99.8;
#X obj 100 65 phasor~ 100.2;
#X obj 100 95 -~ 1;
#X obj 134 115 noise~;
#X obj 134 145 lop~ 2;
#X obj 134 175 lop~ 2;
#X obj 134 205 *~;
#X obj 134 235 clip~ -0.5 0.5;
#X obj 134 295 *~;
#N canvas 16 414 450 300 comb1 0;
#X obj 60 -118 inlet~;
#X obj 60 -81 vd~ \$0-comb \$1;
#X obj 99 -40 *~ \$2;
#X obj 99 -3 inlet~;
#X obj 199 -3 lop~ 3000;
#X obj 134 34 +~;
#X obj 70 61 outlet~;
#X obj 134 71 delwrite~ \$0-comb 100;
#X obj 470 398 mp3cast~;
#X msg 521 329 disconnect;
#X msg 520 231 passwd hackme;
#X msg 520 253 icecast2;
#X msg 520 277 mountpoint houseFM;
#X msg 520 299 connect localhost 8000;
#X obj 480 408 mp3cast~;
#X msg 531 339 disconnect;
#X msg 530 241 passwd hackme;
#X msg 530 263 icecast2;
#X msg 530 287 mountpoint houseFM;
#X msg 530 309 connect localhost 8000;
#X obj 490 418 mp3cast~;
#X msg 541 349 disconnect;
#X msg 540 251 passwd hackme;
#X msg 540 273 icecast2;
#X msg 540 297 mountpoint houseFM;
#X msg 540 319 connect localhost 8000;
#X connect 0 0 1 0;
#X connect 1 0 2 0;
#X connect 1 0 6 0;
#X connect 2 0 4 0;
#X connect 3 0 5 0;
#X connect 4 0 5 1;
#X connect 5 0 7 0;
#X connect 9 0 8 0;
#X connect 10 0 8 0;
#X connect 10 0 11 0;
#X connect 11 0 8 0;
#X connect 11 0 12 0;
#X connect 12 0 8 0;
#X connect 12 0 13 0;
#X connect 13 0 8 0;
#X connect 15 0 14 0;
#X connect 16 0 14 0;
#X connect 16 0 17 0;
#X connect 17 0 14 0;
#X connect 17 0 18 0;
#X connect 18 0 14 0;
#X connect 18 0 19 0;
#X connect 19 0 14 0;
#X connect 21 0 20 0;
#X connect 22 0 20 0;
#X connect 22 0 23 0;
#X connect 23 0 20 0;
#X connect 23 0 24 0;
#X connect 24 0 20 0;
#X connect 24 0 25 0;
#X connect 25 0 20 0;
#X restore 94 329 pd comb1 80 0.2;
#X obj 71 290 +~ 20;
#X obj 93 379 outlet~;
#X obj 134 265 *~ 2000;
#X connect 0 0 2 0;
#X connect 1 0 2 0;
#X connect 2 0 7 0;
#X connect 3 0 4 0;
#X connect 4 0 5 0;
#X connect 5 0 6 0;
#X connect 5 0 6 1;
#X connect 6 0 12 0;
#X connect 7 0 8 0;
#X connect 8 0 9 1;
#X connect 9 0 11 0;
#X connect 10 0 9 0;
#X connect 12 0 8 1;
#X connect 12 0 10 0;
#X restore 41 111 pd hum;
#N canvas 1 59 1052 521 add 0;
#X obj 129 55 100;
#X obj 173 57 200;
#X obj 208 58 300;
#X obj 241 56 400;
#X obj 276 57 500;
#X obj 317 56 600;
#X obj 355 57 700;
#X obj 388 61 800;
#X obj 185 131 osc~;
#X obj 132 19 hsl 128 15 0 127 0 0 empty empty empty -2 -8 0 10 -262144
-1 -1 4200 1;
#X msg 1149 323 wet \$1;
#X obj 1152 283 hsl 50 20 0 1 0 0 empty empty empty -2 -8 0 10 -262144
-1 -1 1999 1;
#X floatatom 1214 316 5 0 0 0 - - -;
#X obj 1149 231 loadbang;
#X msg 1149 254 0.408;
#X msg 1149 323 wet \$1;
#X obj 1152 283 hsl 50 20 0 1 0 0 empty empty empty -2 -8 0 10 -262144
-1 -1 1999 1;
#X floatatom 1214 316 5 0 0 0 - - -;
#X obj 1149 231 loadbang;
#X msg 1149 254 0.408;
#X msg 1159 333 wet \$1;
#X obj 1162 293 hsl 50 20 0 1 0 0 empty empty empty -2 -8 0 10 -262144
-1 -1 1999 1;
#X floatatom 1224 326 5 0 0 0 - - -;
#X obj 1159 241 loadbang;
#X msg 1159 264 0.408;
#X msg 1149 323 wet \$1;
#X obj 1152 283 hsl 50 20 0 1 0 0 empty empty empty -2 -8 0 10 -262144
-1 -1 1999 1;
#X floatatom 1214 316 5 0 0 0 - - -;
#X obj 1149 231 loadbang;
#X msg 1149 254 0.408;
#X msg 1149 323 wet \$1;
#X obj 1152 283 hsl 50 20 0 1 0 0 empty empty empty -2 -8 0 10 -262144
-1 -1 1999 1;
#X floatatom 1214 316 5 0 0 0 - - -;
#X obj 1149 231 loadbang;
#X msg 1149 254 0.408;
#X obj 154 247 freeverb~;
#X obj 1152 283 hsl 50 20 0 1 0 0 empty empty empty -2 -8 0 10 -262144
-1 -1 0 1;
#X msg 333 196 wet \$1;
#X msg 290 343 dry \$1;
#X obj 334 167 hsl 64 15 0 1 0 0 empty empty empty -2 -8 0 10 -262144
-1 -1 296 1;
#X obj 293 311 hsl 64 15 0 1 0 0 empty empty empty -2 -8 0 10 -262144
-1 -1 1399 1;
#X obj 77 337 vu 15 120 empty empty -1 -8 0 10 -66577 -1 1 0;
#X floatatom 414 201 5 0 0 0 - - -;
#X floatatom 375 341 5 0 0 0 - - -;
#X floatatom 188 42 5 0 0 0 - - -;
#X obj 151 -46 loadbang;
#X obj 292 252 loadbang;
#X obj 311 108 loadbang;
#X msg 153 -17 42;
#X msg 308 138 0.047;
#X msg 289 272 0.222;
#X obj 53 254 env~;
#X obj 52 286 - 100;
#X obj 477 42 inlet;
#X obj 170 413 outlet~;
#X obj 177 182 *~ 1;
#X obj 54 220 r~ VUadd;
#X obj 77 180 s~ VUadd;
#X connect 0 0 8 0;
#X connect 1 0 8 0;
#X connect 2 0 8 0;
#X connect 3 0 8 0;
#X connect 4 0 8 0;
#X connect 5 0 8 0;
#X connect 6 0 8 0;
#X connect 7 0 8 0;
#X connect 8 0 55 0;
#X connect 9 0 0 0;
#X connect 9 0 44 0;
#X connect 11 0 10 0;
#X connect 11 0 12 0;
#X connect 13 0 14 0;
#X connect 14 0 11 0;
#X connect 16 0 15 0;
#X connect 16 0 17 0;
#X connect 18 0 19 0;
#X connect 19 0 16 0;
#X connect 21 0 20 0;
#X connect 21 0 22 0;
#X connect 23 0 24 0;
#X connect 24 0 21 0;
#X connect 26 0 25 0;
#X connect 26 0 27 0;
#X connect 28 0 29 0;
#X connect 29 0 26 0;
#X connect 31 0 30 0;
#X connect 31 0 32 0;
#X connect 33 0 34 0;
#X connect 34 0 31 0;
#X connect 35 0 54 0;
#X connect 35 1 54 0;
#X connect 37 0 35 0;
#X connect 38 0 35 0;
#X connect 39 0 37 0;
#X connect 39 0 42 0;
#X connect 40 0 38 0;
#X connect 40 0 43 0;
#X connect 45 0 48 0;
#X connect 46 0 50 0;
#X connect 47 0 49 0;
#X connect 48 0 9 0;
#X connect 49 0 39 0;
#X connect 50 0 40 0;
#X connect 51 0 52 0;
#X connect 52 0 41 0;
#X connect 53 0 45 0;
#X connect 53 0 47 0;
#X connect 53 0 46 0;
#X connect 55 0 35 0;
#X connect 55 0 35 1;
#X connect 55 0 57 0;
#X connect 56 0 51 0;
#X restore 97 111 pd add;
#X obj 22 13 loadbang;
#X msg 22 50 \; pd dsp 1;
#X obj 87 186 mp3cast~;
#X msg 290 160 disconnect;
#X msg 289 62 passwd hackme;
#X msg 289 84 icecast2;
#X msg 289 108 mountpoint houseFM;
#N canvas 93 51 1360 763 fm 1;
#X obj -91 240 osc~;
#X obj -60 305 *~;
#X obj -1 276 line~;
#X msg 0 249 \$1 50;
#X obj 227 214 env~;
#X obj 229 249 - 100;
#X obj 263 294 vu 15 120 empty empty -1 -8 0 10 -66577 -1 1 0;
#X obj 43 176 knob 32 32 0 1 0 0 empty empty MASTERvol -67 30 0 12
-258113 -1 -1 1891 1;
#X obj -95 200 +~;
#X floatatom -96 159 5 0 0 0 - - -;
#X text -101 144 Carrier;
#X obj 78 87 osc~;
#X floatatom 78 58 5 0 0 0 - - -;
#X text 63 31 Modulator Freq;
#X obj 79 117 *~;
#X floatatom 125 98 5 0 0 0 - - -;
#X text 124 79 Mod Index/Depth;
#X obj 327 249 s ndx;
#X obj 136 58 r ndx;
#X obj 427 237 + 200;
#X obj 431 275 s freq;
#X obj 20 14 r freq;
#X obj 526 232 s amp;
#X obj 43 142 r amp;
#X obj -171 407 freeverb~;
#X msg 116 343 wet \$1;
#X msg 131 481 dry \$1;
#X msg 225 614 roomsize \$1;
#X obj 119 312 hsl 50 20 0 1 0 0 empty empty empty -2 -8 0 10 -262144
-1 -1 1597 1;
#X obj 130 451 hsl 50 20 0 1 0 0 empty empty empty -2 -8 0 10 -262144
-1 -1 196 1;
#X obj 225 582 hsl 50 20 0 1 0 0 empty empty empty -2 -8 0 10 -262144
-1 -1 2097 1;
#X obj -79 486 delwrite~ delayLeft 4000;
#X obj -71 525 delwrite~ delayRight 4000;
#X obj -74 720 vd~ delayLeft;
#X obj 125 705 vd~ delayRight;
#X obj -64 694 sig~;
#X obj 137 677 sig~;
#X text 522 272 Possibly take out this amp;
#X text 354 122 change the random number for better pitch/melody;
#X obj 301 143 metro;
#X obj 275 41 loadbang;
#X floatatom 180 344 5 0 0 0 - - -;
#X floatatom 228 486 5 0 0 0 - - -;
#X floatatom 364 615 5 0 0 0 - - -;
#X obj 100 236 loadbang;
#X obj 431 193 random 500;
#X msg 131 278 0.326;
#X obj 117 376 loadbang;
#X msg 148 418 0.04;
#X obj 269 504 loadbang;
#X msg 300 546 0.428;
#X obj -111 604 loadbang;
#X msg -86 630 14;
#X obj 50 584 loadbang;
#X msg 81 626 3;
#X obj 329 207 random 200;
#X msg 322 75 300;
#X obj 11 669 outlet~;
#X obj -163 57 inlet;
#X obj 524 197 randomF 2;
#X obj -116 328 s~ VUfm;
#X obj 219 173 r~ VUfm;
#X connect 0 0 1 0;
#X connect 1 0 24 1;
#X connect 1 0 24 0;
#X connect 1 0 60 0;
#X connect 2 0 1 1;
#X connect 3 0 2 0;
#X connect 4 0 5 0;
#X connect 5 0 6 0;
#X connect 7 0 3 0;
#X connect 8 0 0 0;
#X connect 9 0 8 0;
#X connect 11 0 14 0;
#X connect 12 0 11 0;
#X connect 14 0 8 1;
#X connect 15 0 14 1;
#X connect 18 0 15 0;
#X connect 19 0 20 0;
#X connect 21 0 12 0;
#X connect 23 0 7 0;
#X connect 24 0 31 0;
#X connect 24 0 57 0;
#X connect 24 1 32 0;
#X connect 24 1 57 0;
#X connect 25 0 24 0;
#X connect 26 0 24 0;
#X connect 27 0 24 0;
#X connect 28 0 25 0;
#X connect 28 0 41 0;
#X connect 29 0 26 0;
#X connect 29 0 42 0;
#X connect 30 0 27 0;
#X connect 30 0 43 0;
#X connect 33 0 57 0;
#X connect 34 0 57 0;
#X connect 35 0 33 0;
#X connect 36 0 34 0;
#X connect 39 0 45 0;
#X connect 39 0 55 0;
#X connect 39 0 59 0;
#X connect 40 0 56 0;
#X connect 40 0 39 0;
#X connect 44 0 46 0;
#X connect 45 0 19 0;
#X connect 46 0 28 0;
#X connect 47 0 48 0;
#X connect 48 0 29 0;
#X connect 49 0 50 0;
#X connect 50 0 30 0;
#X connect 51 0 52 0;
#X connect 52 0 35 0;
#X connect 53 0 54 0;
#X connect 54 0 36 0;
#X connect 55 0 17 0;
#X connect 56 0 39 1;
#X connect 58 0 40 0;
#X connect 58 0 44 0;
#X connect 58 0 47 0;
#X connect 58 0 49 0;
#X connect 58 0 53 0;
#X connect 58 0 51 0;
#X connect 59 0 22 0;
#X connect 61 0 4 0;
#X restore 153 111 pd fm;
#X msg 289 130 connect localhost 8010;
#X connect 0 0 4 0;
#X connect 0 0 4 1;
#X connect 1 0 4 0;
#X connect 1 0 4 1;
#X connect 2 0 3 0;
#X connect 2 0 6 0;
#X connect 2 0 1 0;
#X connect 2 0 9 0;
#X connect 5 0 4 0;
#X connect 6 0 4 0;
#X connect 6 0 7 0;
#X connect 7 0 4 0;
#X connect 7 0 8 0;
#X connect 8 0 4 0;
#X connect 8 0 10 0;
#X connect 9 0 4 0;
#X connect 9 0 4 1;
#X connect 10 0 4 0;
