#N canvas 520 326 585 427 12;
#N canvas 0 0 450 300 graph1 0;
#X array array1 44100 float 2;
#X coords 0 1 44100 -1 200 140 1;
#X restore 351 70 graph;
#X obj 39 136 soundfiler;
#X floatatom 39 168 5 0 0 0 - - -;
#X msg 39 105 read voice.wav array1;
#X text 37 -6 3.4.1.1.2. load soundfile;
#X text 365 385 www.pd-tutorial.com;
#X text 371 359 Johannes Kreidler;
#X connect 1 0 2 0;
#X connect 3 0 1 0;
