#N canvas 51 165 1389 713 10;
#X msg 217 88 \; pd dsp 1;
#X obj 197 34 loadbang;
#X obj 217 61 del 100;
#X text 291 61 Why we add a delay here? Answer : http://puredata.info/docs/faq/why-doesn-t-audio-work-when-i-start-pd-in-nogui-mode
;
#X obj 107 394 osc~;
#X obj 138 459 *~;
#X obj 82 482 s~ VU;
#X obj 136 521 dac~ 1 2;
#X obj 197 430 line~;
#X msg 198 403 \$1 50;
#X obj 417 327 r~ VU;
#X obj 425 368 env~;
#X obj 427 403 - 100;
#X obj 432 444 vu 15 120 empty empty -1 -8 0 10 -66577 -1 1 0;
#X obj 228 333 knob 32 32 0 1 0 0 empty empty MASTERvol -67 30 0 12
-258113 -1 -1 3100 1;
#X obj 103 354 +~;
#X floatatom 102 313 5 0 0 0 - - -;
#X text 97 298 Carrier;
#X obj 276 241 osc~;
#X floatatom 276 212 5 0 0 0 - - -;
#X text 261 185 Modulator Freq;
#X obj 277 271 *~;
#X floatatom 323 252 5 0 0 0 - - -;
#X text 322 233 Mod Index/Depth;
#X obj 522 274 tgl 15 0 empty empty empty 17 7 0 10 -262144 -1 -1 0
1;
#X obj 527 361 random 200;
#X obj 525 403 s ndx;
#X obj 334 212 r ndx;
#X obj 629 347 random 200;
#X obj 625 391 + 200;
#X obj 629 429 s freq;
#X obj 218 168 r freq;
#X obj 724 386 s amp;
#X obj 241 296 r amp;
#X obj 722 351 randomF 0.8;
#X obj 522 313 metro 125;
#X connect 1 0 2 0;
#X connect 2 0 0 0;
#X connect 2 0 24 0;
#X connect 4 0 5 0;
#X connect 5 0 6 0;
#X connect 5 0 7 0;
#X connect 5 0 7 1;
#X connect 8 0 5 1;
#X connect 9 0 8 0;
#X connect 10 0 11 0;
#X connect 11 0 12 0;
#X connect 12 0 13 0;
#X connect 14 0 9 0;
#X connect 15 0 4 0;
#X connect 16 0 15 0;
#X connect 18 0 21 0;
#X connect 19 0 18 0;
#X connect 21 0 15 1;
#X connect 22 0 21 1;
#X connect 24 0 35 0;
#X connect 25 0 26 0;
#X connect 27 0 22 0;
#X connect 28 0 29 0;
#X connect 29 0 30 0;
#X connect 31 0 19 0;
#X connect 33 0 14 0;
#X connect 34 0 32 0;
#X connect 35 0 25 0;
#X connect 35 0 28 0;
#X connect 35 0 34 0;
