#N canvas 365 126 1037 763 10;
#X obj 164 132 osc~;
#X obj 195 197 *~;
#X obj 139 220 s~ VU;
#X obj 54 450 dac~ 1 2;
#X obj 254 168 line~;
#X msg 255 141 \$1 50;
#X obj 474 65 r~ VU;
#X obj 482 106 env~;
#X obj 484 141 - 100;
#X obj 518 186 vu 15 120 empty empty -1 -8 0 10 -66577 -1 1 0;
#X obj 291 74 knob 32 32 0 1 0 0 empty empty MASTERvol -67 30 0 12
-258113 -1 -1 105 1;
#X obj 160 92 +~;
#X floatatom 159 51 5 0 0 0 - - -;
#X text 154 36 Carrier;
#X obj 333 -21 osc~;
#X floatatom 333 -50 5 0 0 0 - - -;
#X text 318 -77 Modulator Freq;
#X obj 334 9 *~;
#X floatatom 380 -10 5 0 0 0 - - -;
#X text 379 -29 Mod Index/Depth;
#X obj 582 141 s ndx;
#X obj 391 -50 r ndx;
#X obj 682 129 + 200;
#X obj 686 167 s freq;
#X obj 275 -94 r freq;
#X obj 781 124 s amp;
#X obj 298 34 r amp;
#X obj 84 299 freeverb~;
#X msg 371 235 wet \$1;
#X msg 386 373 dry \$1;
#X msg 480 506 roomsize \$1;
#X obj 374 204 hsl 50 20 0 1 0 0 empty empty empty -2 -8 0 10 -262144
-1 -1 1597 1;
#X obj 385 343 hsl 50 20 0 1 0 0 empty empty empty -2 -8 0 10 -262144
-1 -1 196 1;
#X obj 480 474 hsl 50 20 0 1 0 0 empty empty empty -2 -8 0 10 -262144
-1 -1 2097 1;
#X obj 176 378 delwrite~ delayLeft 4000;
#X obj 184 417 delwrite~ delayRight 4000;
#X obj 181 612 vd~ delayLeft;
#X obj 380 597 vd~ delayRight;
#X obj 191 586 sig~;
#X obj 392 569 sig~;
#X text 777 164 Possibly take out this amp;
#X text 609 14 change the random number for better pitch/melody;
#X obj 63 -65 loadbang;
#X obj 556 35 metro;
#X obj 530 -67 loadbang;
#X floatatom 435 236 5 0 0 0 - - -;
#X floatatom 483 378 5 0 0 0 - - -;
#X floatatom 619 507 5 0 0 0 - - -;
#X obj 355 128 loadbang;
#X obj 686 85 random 500;
#X msg 386 170 0.326;
#X obj 372 268 loadbang;
#X msg 403 310 0.04;
#X obj 524 396 loadbang;
#X msg 555 438 0.428;
#X obj 144 496 loadbang;
#X msg 169 522 14;
#X obj 305 476 loadbang;
#X msg 336 518 3;
#X obj 584 99 random 200;
#X msg 577 -33 300;
#X msg 40 0 \; pd dsp 1;
#X obj 779 89 randomF 0.4;
#X connect 0 0 1 0;
#X connect 1 0 2 0;
#X connect 1 0 27 1;
#X connect 1 0 27 0;
#X connect 4 0 1 1;
#X connect 5 0 4 0;
#X connect 6 0 7 0;
#X connect 7 0 8 0;
#X connect 8 0 9 0;
#X connect 10 0 5 0;
#X connect 11 0 0 0;
#X connect 12 0 11 0;
#X connect 14 0 17 0;
#X connect 15 0 14 0;
#X connect 17 0 11 1;
#X connect 18 0 17 1;
#X connect 21 0 18 0;
#X connect 22 0 23 0;
#X connect 24 0 15 0;
#X connect 26 0 10 0;
#X connect 27 0 3 0;
#X connect 27 0 34 0;
#X connect 27 1 3 1;
#X connect 27 1 35 0;
#X connect 28 0 27 0;
#X connect 29 0 27 0;
#X connect 30 0 27 0;
#X connect 31 0 28 0;
#X connect 31 0 45 0;
#X connect 32 0 29 0;
#X connect 32 0 46 0;
#X connect 33 0 30 0;
#X connect 33 0 47 0;
#X connect 36 0 3 0;
#X connect 37 0 3 1;
#X connect 38 0 36 0;
#X connect 39 0 37 0;
#X connect 42 0 61 0;
#X connect 43 0 49 0;
#X connect 43 0 59 0;
#X connect 43 0 62 0;
#X connect 44 0 60 0;
#X connect 44 0 43 0;
#X connect 48 0 50 0;
#X connect 49 0 22 0;
#X connect 50 0 31 0;
#X connect 51 0 52 0;
#X connect 52 0 32 0;
#X connect 53 0 54 0;
#X connect 54 0 33 0;
#X connect 55 0 56 0;
#X connect 56 0 38 0;
#X connect 57 0 58 0;
#X connect 58 0 39 0;
#X connect 59 0 20 0;
#X connect 60 0 43 1;
#X connect 62 0 25 0;
