#N canvas 0 22 471 555 10;
#X obj 2 345 table \$0-sample;
#X obj 2 300 tabwrite~ \$0-sample;
#X msg 108 205 1;
#X obj 93 50 openpanel;
#X msg 93 109 open \$1;
#X obj 108 157 delay 1000;
#X obj 108 176 t b b;
#X msg 2 244 start;
#X obj 108 128 bang;
#X obj 93 244 readsf~;
#X obj 184 332 timer;
#X msg 184 439 set resize \$1;
#X obj 132 263 t b b;
#X obj 174 499 s \$0-sample;
#X obj 184 362 int;
#X obj 184 396 * 44.1;
#X obj 119 342 delay 10;
#X msg 184 469 resize 19732.6;
#X obj 101 462 s \$0-len;
#X obj 103 407 s \$0-t-len;
#X obj 93 5 r \$0-smp-load;
#X obj 93 28 bang;
#X obj 191 130 splitfilename;
#X obj 267 242 s \$0-smp-dsp-r;
#X msg 266 189 set label \$1;
#X msg 197 10 bang;
#X msg 174 157 resize 176400;
#X obj 184 417 int;
#X msg 266 218;
#X text 266 274 of a canvas or other object;
#X text 266 289 used as a display.;
#X text 266 259 this to be sent to the input;
#X obj 243 350 samplerate~;
#X obj 243 370 / 1000;
#X obj 243 329 loadbang;
#X text 183 178 4 seconds;
#X connect 2 0 9 0;
#X connect 3 0 4 0;
#X connect 3 0 22 0;
#X connect 4 0 8 0;
#X connect 4 0 9 0;
#X connect 5 0 6 0;
#X connect 6 0 2 0;
#X connect 6 0 10 0;
#X connect 6 1 7 0;
#X connect 7 0 1 0;
#X connect 8 0 5 0;
#X connect 8 0 26 0;
#X connect 9 0 1 0;
#X connect 9 1 12 0;
#X connect 10 0 14 0;
#X connect 11 0 17 0;
#X connect 12 0 16 0;
#X connect 12 1 10 1;
#X connect 12 1 28 0;
#X connect 14 0 15 0;
#X connect 14 0 19 0;
#X connect 15 0 27 0;
#X connect 16 0 17 0;
#X connect 17 0 13 0;
#X connect 20 0 21 0;
#X connect 21 0 3 0;
#X connect 22 1 24 0;
#X connect 24 0 28 0;
#X connect 25 0 3 0;
#X connect 26 0 13 0;
#X connect 27 0 11 0;
#X connect 27 0 18 0;
#X connect 28 0 23 0;
#X connect 32 0 33 0;
#X connect 33 0 15 1;
#X connect 34 0 32 0;
