#N canvas 133 281 705 369 10;
#X obj 306 1 loadbang;
#X text 400 28 Why we add a delay here? Answer : http://puredata.info/docs/faq/why-doesn-t-audio-work-when-i-start-pd-in-nogui-mode
;
#X obj 199 70 osc~ 220;
#X obj 188 188 dac~;
#X obj 326 28 del 150;
#X msg 309 57 \; pd dsp 1;
#X obj 202 127 *~ 0.04;
#X connect 0 0 4 0;
#X connect 2 0 6 0;
#X connect 4 0 5 0;
#X connect 6 0 3 0;
#X connect 6 0 3 1;
